<svg width="28px" height="28px" version="1.1" viewBox="0 0 100 100" xmlns="http://www.w3.org/2000/svg">
 <path d="m37.5 52.855c0 0.9375 0.625 1.7578 1.5273 2.0078 16.039 4.4258 19.117 7.5078 23.547 23.547 0.25 0.90234 1.0703 1.5273 2.0078 1.5273s1.7578-0.625 2.0078-1.5273c4.4297-16.039 7.5078-19.117 23.547-23.547 0.90234-0.25 1.5273-1.0703 1.5273-2.0078s-0.625-1.7578-1.5273-2.0078c-16.039-4.4297-19.121-7.5117-23.547-23.547-0.25-0.90234-1.0703-1.5273-2.0078-1.5273s-1.7578 0.625-2.0078 1.5273c-4.4258 16.035-7.5078 19.117-23.547 23.547-0.90234 0.25-1.5273 1.0703-1.5273 2.0078zm27.082-17.906c3.5469 10.129 7.7773 14.359 17.91 17.91-10.129 3.5469-14.363 7.7773-17.91 17.91-3.5469-10.129-7.7773-14.359-17.91-17.91 10.129-3.5469 14.363-7.7773 17.91-17.91z" fill="#BAC8FF"/>
 <path d="m17.539 28.051c9.7578 2.6953 11.48 4.418 14.172 14.172 0.25 0.90234 1.0742 1.5273 2.0078 1.5273s1.7617-0.625 2.0078-1.5273c2.6914-9.7539 4.4141-11.477 14.172-14.172 0.90234-0.25 1.5273-1.0703 1.5273-2.0078s-0.625-1.7578-1.5273-2.0078c-9.7578-2.6953-11.48-4.418-14.172-14.172-0.24609-0.90234-1.0703-1.5273-2.0078-1.5273s-1.7578 0.625-2.0078 1.5273c-2.6953 9.7578-4.418 11.477-14.172 14.172-0.90234 0.25-1.5273 1.0703-1.5273 2.0078s0.625 1.7578 1.5273 2.0078zm16.184-11.035c1.9414 4.6133 4.4102 7.082 9.0234 9.0234-4.6172 1.9414-7.0859 4.4102-9.0234 9.0234-1.9414-4.6133-4.4102-7.082-9.0234-9.0234 4.6133-1.9414 7.082-4.4102 9.0234-9.0234z" fill="#BAC8FF"/>
 <path d="m9.8594 74.926c10.363 2.8633 12.355 4.8516 15.215 15.211 0.25 0.90234 1.0703 1.5273 2.0078 1.5273s1.7578-0.625 2.0078-1.5273c2.8594-10.363 4.8516-12.352 15.215-15.211 0.90234-0.25 1.5273-1.0703 1.5273-2.0078s-0.62891-1.7578-1.5273-2.0078c-10.363-2.8594-12.355-4.8516-15.215-15.211-0.25-0.90234-1.0703-1.5273-2.0078-1.5273s-1.7578 0.625-2.0078 1.5273c-2.8594 10.359-4.8516 12.352-15.215 15.211-0.90234 0.25-1.5273 1.0703-1.5273 2.0078s0.625 1.7578 1.5273 2.0078zm17.223-12c2.1172 5.1836 4.8047 7.875 9.9922 9.9922-5.1836 2.1172-7.8711 4.8047-9.9922 9.9922-2.1172-5.1836-4.8086-7.8711-9.9922-9.9922 5.1836-2.1172 7.875-4.8047 9.9922-9.9922z" fill="#BAC8FF"/>
</svg>