<svg version="1.1" id="Layer_1" xmlns="http://www.w3.org/2000/svg" xmlns:xlink="http://www.w3.org/1999/xlink" x="0px" y="0px"
	 width="100%" viewBox="0 0 168 167" enable-background="new 0 0 168 167" xml:space="preserve">
<path fill="#020202" opacity="1.000000" stroke="none" 
	d="
M1.000000,71.000000 
	C1.000000,47.333340 1.000000,24.166681 1.000000,1.000015 
	C56.999973,1.000010 112.999947,1.000010 168.999939,1.000005 
	C168.999969,56.666626 168.999969,112.333252 168.999985,167.999908 
	C113.000053,167.999939 57.000114,167.999939 1.000085,167.999969 
	C1.000000,135.833328 1.000000,103.666664 1.000000,71.000000 
M110.784309,153.348358 
	C142.595459,141.187790 160.408966,110.176933 155.271622,76.524193 
	C154.512802,71.553444 155.125519,66.318130 155.542480,61.241272 
	C155.853333,57.456501 157.252869,53.755314 157.505585,49.972675 
	C158.314163,37.870049 157.075287,25.999298 151.752319,14.910770 
	C148.995621,9.168135 146.531860,9.134751 143.164185,14.397548 
	C140.743347,18.180670 138.407837,22.019880 135.923126,25.760248 
	C132.741974,30.549017 129.024155,31.279993 123.975388,28.530643 
	C119.751740,26.230619 115.569199,23.695398 111.075592,22.077971 
	C89.577599,14.339990 68.919556,16.342628 49.258778,28.102684 
	C43.493313,31.551281 39.931545,30.721584 36.284679,25.107533 
	C34.019375,21.620277 31.845814,18.073576 29.605608,14.569837 
	C25.979973,8.899247 23.682236,8.919792 20.834757,15.209698 
	C14.447533,29.318682 13.711611,44.000446 16.485374,59.149170 
	C17.540071,64.909325 17.230663,70.938217 17.337242,76.848343 
	C17.480373,84.785538 16.271746,92.931992 17.645832,100.631241 
	C24.983339,141.744614 67.938850,168.501755 110.784309,153.348358 
z"/>
<path fill="#FAFAFA" opacity="1.000000" stroke="none" 
	d="
M110.430870,153.518707 
	C67.938850,168.501755 24.983339,141.744614 17.645832,100.631241 
	C16.271746,92.931992 17.480373,84.785538 17.337242,76.848343 
	C17.230663,70.938217 17.540071,64.909325 16.485374,59.149170 
	C13.711611,44.000446 14.447533,29.318682 20.834757,15.209698 
	C23.682236,8.919792 25.979973,8.899247 29.605608,14.569837 
	C31.845814,18.073576 34.019375,21.620277 36.284679,25.107533 
	C39.931545,30.721584 43.493313,31.551281 49.258778,28.102684 
	C68.919556,16.342628 89.577599,14.339990 111.075592,22.077971 
	C115.569199,23.695398 119.751740,26.230619 123.975388,28.530643 
	C129.024155,31.279993 132.741974,30.549017 135.923126,25.760248 
	C138.407837,22.019880 140.743347,18.180670 143.164185,14.397548 
	C146.531860,9.134751 148.995621,9.168135 151.752319,14.910770 
	C157.075287,25.999298 158.314163,37.870049 157.505585,49.972675 
	C157.252869,53.755314 155.853333,57.456501 155.542480,61.241272 
	C155.125519,66.318130 154.512802,71.553444 155.271622,76.524193 
	C160.408966,110.176933 142.595459,141.187790 110.430870,153.518707 
M127.761551,52.764362 
	C117.367271,40.921658 104.381958,34.401382 88.575790,33.599121 
	C58.984924,32.097198 33.092663,55.924854 32.082012,85.622200 
	C31.051798,115.894386 54.932903,141.659180 84.727058,141.983978 
	C107.475266,142.231964 124.703690,132.086197 134.764801,111.808815 
	C144.930222,91.321213 142.188660,71.499985 127.761551,52.764362 
z"/>
<path fill="#030303" opacity="1.000000" stroke="none" 
	d="
M127.981560,53.046478 
	C142.188660,71.499985 144.930222,91.321213 134.764801,111.808815 
	C124.703690,132.086197 107.475266,142.231964 84.727058,141.983978 
	C54.932903,141.659180 31.051798,115.894386 32.082012,85.622200 
	C33.092663,55.924854 58.984924,32.097198 88.575790,33.599121 
	C104.381958,34.401382 117.367271,40.921658 127.981560,53.046478 
M78.466881,92.083740 
	C88.477142,94.425331 94.316437,100.982811 97.118324,110.945244 
	C99.881927,100.466347 106.337646,94.121849 116.791840,91.376442 
	C106.386299,88.685272 99.895531,82.329468 97.096176,71.870216 
	C94.668846,80.409958 89.987350,86.608337 81.781525,89.743652 
	C80.449432,90.252625 79.189507,90.950470 78.466881,92.083740 
M71.826202,63.361118 
	C70.076683,68.662743 66.196320,71.721352 62.164795,72.960487 
	C65.726837,76.508133 69.526886,80.292816 72.554893,83.308578 
	C75.585091,80.281090 79.382362,76.487213 82.212273,73.659828 
	C79.729233,70.868141 76.688316,67.430016 73.618271,64.018105 
	C73.153030,63.501060 72.552376,63.105865 71.826202,63.361118 
M75.688492,101.807060 
	C73.798897,103.878639 71.909302,105.950211 70.019707,108.021790 
	C70.425980,107.392342 70.832253,106.762894 71.238533,106.133438 
	C73.463890,108.476768 75.689255,110.820091 77.914612,113.163422 
	C76.803520,112.942902 75.692429,112.722382 74.581329,112.501854 
	C77.200798,110.663162 79.820259,108.824463 81.869507,107.386024 
	C80.195999,105.636955 78.116867,103.463943 75.688492,101.807060 
z"/>
<path fill="#F7F7F7" opacity="1.000000" stroke="none" 
	d="
M78.181549,91.822380 
	C79.189507,90.950470 80.449432,90.252625 81.781525,89.743652 
	C89.987350,86.608337 94.668846,80.409958 97.096176,71.870216 
	C99.895531,82.329468 106.386299,88.685272 116.791840,91.376442 
	C106.337646,94.121849 99.881927,100.466347 97.118324,110.945244 
	C94.316437,100.982811 88.477142,94.425331 78.181549,91.822380 
z"/>
<path fill="#F5F5F5" opacity="1.000000" stroke="none" 
	d="
M71.920280,63.007713 
	C72.552376,63.105865 73.153030,63.501060 73.618271,64.018105 
	C76.688316,67.430016 79.729233,70.868141 82.212273,73.659828 
	C79.382362,76.487213 75.585091,80.281090 72.554893,83.308578 
	C69.526886,80.292816 65.726837,76.508133 62.164795,72.960487 
	C66.196320,71.721352 70.076683,68.662743 71.920280,63.007713 
z"/>
<path fill="#EEEEEE" opacity="1.000000" stroke="none" 
	d="
M75.863113,101.548996 
	C78.116867,103.463943 80.195999,105.636955 81.869507,107.386024 
	C79.820259,108.824463 77.200798,110.663162 74.581329,112.501854 
	C75.692429,112.722382 76.803520,112.942902 77.914612,113.163422 
	C75.689255,110.820091 73.463890,108.476768 71.238533,106.133438 
	C70.832253,106.762894 70.425980,107.392342 70.019707,108.021790 
	C71.909302,105.950211 73.798897,103.878639 75.863113,101.548996 
z"/>
</svg>