<?xml version="1.0" encoding="UTF-8"?>
<svg width="100pt" height="100pt" version="1.1" viewBox="0 0 100 100" xmlns="http://www.w3.org/2000/svg">
 <path d="m8.2266 25.586c-1.1836-0.4375-2.418-0.78125-3.6875-1.0234-0.09375-0.019531-0.18359-0.035156-0.27734-0.050781-0.85156-0.15234-0.85156-1.3711 0-1.5234 0.09375-0.015625 0.18359-0.03125 0.27734-0.050781 1.2695-0.24219 2.5039-0.58594 3.6875-1.0234 0.71094-0.26562 1.4062-0.55859 2.0781-0.88672 4.6719-2.2695 8.4531-6.0508 10.723-10.723 0.32812-0.67188 0.62109-1.3672 0.88672-2.0781 0.4375-1.1836 0.78125-2.418 1.0234-3.6875 0.019531-0.09375 0.035156-0.18359 0.050781-0.27734 0.15234-0.85156 1.3711-0.85156 1.5234 0 0.015625 0.09375 0.03125 0.18359 0.050781 0.27734 0.24219 1.2695 0.58594 2.5039 1.0234 3.6875 0.26562 0.71094 0.55859 1.4062 0.88672 2.0781 2.2695 4.6719 6.0508 8.4531 10.723 10.723 0.67188 0.32812 1.3672 0.62109 2.0781 0.88672 1.1836 0.4375 2.418 0.78125 3.6875 1.0234 0.09375 0.019531 0.18359 0.035156 0.27734 0.050781 0.85156 0.15234 0.85156 1.3711 0 1.5234-0.09375 0.015625-0.18359 0.03125-0.27734 0.050781-1.2695 0.24219-2.5039 0.58594-3.6875 1.0234-0.71094 0.26562-1.4062 0.55859-2.0781 0.88672-4.6719 2.2695-8.4531 6.0508-10.723 10.723-0.32812 0.67188-0.62109 1.3672-0.88672 2.0781-0.4375 1.1836-0.78125 2.418-1.0234 3.6875-0.019531 0.09375-0.035156 0.18359-0.050781 0.27734-0.15234 0.85156-1.3711 0.85156-1.5234 0-0.015625-0.09375-0.03125-0.18359-0.050781-0.27734-0.24219-1.2695-0.58594-2.5039-1.0234-3.6875-0.26562-0.71094-0.55859-1.4062-0.88672-2.0781-2.2695-4.6719-6.0508-8.4531-10.723-10.723-0.67188-0.32812-1.3672-0.62109-2.0781-0.88672zm28.352 30.148c-0.82812-0.22266-1.668-0.41797-2.5195-0.58594-0.13281-0.027344-0.26953-0.050782-0.40234-0.078126l-0.039062-0.003906-0.054688-0.011718c-0.085938-0.015626-0.17578-0.03125-0.36328-0.066407l-0.0625-0.011719c-1.3594-0.25391-1.3594-2.1992 0-2.4531l0.0625-0.011719c0.1875-0.035157 0.27734-0.050781 0.36328-0.066407l0.054688-0.011718 0.039062-0.003906c0.13281-0.027344 0.26953-0.050782 0.40234-0.078126 0.85156-0.16797 1.6914-0.36328 2.5195-0.58594 0.71094-0.19141 1.4102-0.40234 2.1016-0.63281 11.18-3.7266 19.977-12.523 23.703-23.703 0.23047-0.69141 0.44141-1.3906 0.63281-2.1016 0.22266-0.82812 0.41797-1.668 0.58594-2.5195 0.027344-0.13281 0.050782-0.26953 0.078126-0.40234l0.003906-0.039062 0.011718-0.054688c0.015626-0.082031 0.03125-0.17578 0.0625-0.35547l0.003907-0.007812 0.011719-0.0625c0.25391-1.3594 2.1992-1.3594 2.4531 0l0.011719 0.0625c0.035157 0.1875 0.050781 0.27734 0.066407 0.36328l0.011718 0.054688 0.003906 0.039062c0.027344 0.13281 0.050782 0.26953 0.078126 0.40234 0.16797 0.85156 0.36328 1.6914 0.58594 2.5195 0.19141 0.71094 0.40234 1.4102 0.63281 2.1016 3.7266 11.18 12.523 19.977 23.703 23.703 0.69141 0.23047 1.3906 0.44141 2.1016 0.63281 0.82812 0.22266 1.668 0.41797 2.5195 0.58594 0.13281 0.027344 0.26953 0.050782 0.40234 0.078126l0.039062 0.003906 0.054688 0.011718c0.085938 0.015626 0.17578 0.03125 0.36328 0.066407l0.0625 0.011719c1.3594 0.25391 1.3594 2.1992 0 2.4531l-0.0625 0.011719-0.19531 0.035157-0.16797 0.03125-0.054688 0.011718-0.039062 0.003906c-0.13281 0.027344-0.26953 0.050782-0.40234 0.078126-0.85156 0.16797-1.6914 0.36328-2.5195 0.58594-0.71094 0.19141-1.4102 0.40234-2.1016 0.63281-11.18 3.7266-19.977 12.523-23.703 23.703-0.23047 0.69141-0.44141 1.3906-0.63281 2.1016-0.22266 0.82812-0.41797 1.668-0.58594 2.5195-0.027344 0.13281-0.050782 0.26953-0.078126 0.40234l-0.003906 0.039062-0.011718 0.054688-0.023438 0.125-0.039062 0.23047-0.015626 0.070312c-0.25391 1.3594-2.1992 1.3594-2.4531 0l-0.011719-0.0625c-0.035157-0.1875-0.050781-0.27734-0.066407-0.36328l-0.011718-0.054688-0.003906-0.039062c-0.027344-0.13281-0.050782-0.26953-0.078126-0.40234-0.16797-0.85156-0.36328-1.6914-0.58594-2.5195-0.19141-0.71094-0.40234-1.4102-0.63281-2.1016-3.7266-11.18-12.523-19.977-23.703-23.703-0.69141-0.23047-1.3906-0.44141-2.1016-0.63281zm-18.711 26.027c1.4258 0.27344 2.7773 0.75 4.0234 1.3984 0.55078 0.28906 1.0859 0.61328 1.5938 0.96875 1.418 0.98828 2.6484 2.2188 3.6367 3.6367 0.35547 0.50781 0.67969 1.043 0.96875 1.5938 0.64844 1.2461 1.125 2.5977 1.3984 4.0234 0.011719 0.058594 0.019531 0.11719 0.03125 0.17578 0.097657 0.53516 0.86328 0.53516 0.96094 0 0.011719-0.058594 0.019531-0.11719 0.03125-0.17578 0.27344-1.4258 0.75-2.7773 1.3984-4.0234 0.28906-0.55078 0.61328-1.0859 0.96875-1.5938 0.98828-1.418 2.2188-2.6484 3.6367-3.6367 0.50781-0.35547 1.043-0.67969 1.5938-0.96875 1.2461-0.64844 2.5977-1.125 4.0234-1.3984 0.058594-0.011719 0.11719-0.019531 0.17578-0.03125 0.53516-0.097657 0.53516-0.86328 0-0.96094-0.058594-0.011719-0.11719-0.019531-0.17578-0.03125-1.4258-0.27344-2.7773-0.75-4.0234-1.3984-0.55078-0.28906-1.0859-0.61328-1.5938-0.96875-1.418-0.98828-2.6484-2.2188-3.6367-3.6367-0.35547-0.50781-0.67969-1.043-0.96875-1.5938-0.64844-1.2461-1.125-2.5977-1.3984-4.0234-0.011719-0.058594-0.019531-0.11719-0.03125-0.17578-0.097657-0.53516-0.86328-0.53516-0.96094 0-0.011719 0.058594-0.019531 0.11719-0.03125 0.17578-0.27344 1.4258-0.75 2.7773-1.3984 4.0234-0.28906 0.55078-0.61328 1.0859-0.96875 1.5938-0.98828 1.418-2.2188 2.6484-3.6367 3.6367-0.50781 0.35547-1.043 0.67969-1.5938 0.96875-1.2461 0.64844-2.5977 1.125-4.0234 1.3984-0.058594 0.011719-0.11719 0.019531-0.17578 0.03125-0.53516 0.097657-0.53516 0.86328 0 0.96094 0.058594 0.011719 0.11719 0.019531 0.17578 0.03125z" fill="#b5fb34" fill-rule="evenodd"/>
</svg>
